<?xml version="1.0" encoding="UTF-8"?><svg xmlns="http://www.w3.org/2000/svg" viewBox="0 0 463.49849 476.02548"><g id="a"><path d="M239.01743,90.80255l39.21019,84.61146,46.08917,10.31847,5.50318,19.94904,92.86624,26.14013s-23.38854,44.02548-57.78344,64.66242c-8.94268,58.47134-15.82166,79.79618-93.55414,110.75159l-71.5414-28.20382-46.08917,35.7707-28.89172-21.32484-56.40764-19.26115,46.08917-59.84713-18.57325-17.88535v-24.76433l27.51592,2.75159,53.65605-42.64968,61.91083-141.01911Z" style="fill:none; stroke:#231f20; stroke-miterlimit:10; stroke-width:3px;"/></g><g id="b"><polygon points="213.3359 299.84713 217.69259 309.93631 221.66711 299.92357 213.3359 299.84713" style="fill:none; stroke:#231f20; stroke-miterlimit:10; stroke-width:2px;"/><polygon points="252.73718 301.98726 257.09387 312.07643 261.06839 302.06369 252.73718 301.98726" style="fill:none; stroke:#231f20; stroke-miterlimit:10; stroke-width:2px;"/><polygon points="240.24036 290.36943 244.59705 300.4586 248.57157 290.44586 240.24036 290.36943" style="fill:none; stroke:#231f20; stroke-miterlimit:10; stroke-width:2px;"/><polygon points="237.06839 312.9172 241.42508 323.00637 245.3996 312.99363 237.06839 312.9172" style="fill:none; stroke:#231f20; stroke-miterlimit:10; stroke-width:2px;"/><polygon points="163.73081 288.4586 168.0875 298.54777 172.06202 288.53503 163.73081 288.4586" style="fill:none; stroke:#231f20; stroke-miterlimit:10; stroke-width:2px;"/><polygon points="141.52699 268.66242 145.88367 278.75159 149.8582 268.73885 141.52699 268.66242" style="fill:none; stroke:#231f20; stroke-miterlimit:10; stroke-width:2px;"/><polyline points="241.08113 328.35669 255.75629 318.42038 244.29132 306.4586 218.15119 317.35032 167.24673 305.42675 143.8582 283.87261" style="fill:none; stroke:#231f20; stroke-miterlimit:10; stroke-width:2px;"/></g></svg>