<svg xmlns="http://www.w3.org/2000/svg" viewBox="0 0 358.93 329.53"><defs><style>.cls-1,.cls-2{fill:none;stroke:#231f20;stroke-miterlimit:10;}.cls-1{stroke-width:3px;}.cls-2{stroke-width:2px;}</style></defs><g id="Layer_2" data-name="Layer 2"><path class="cls-1" d="M316.81,263,356,347.65,402.11,358l5.5,19.95,92.87,26.14s-23.39,44-57.79,64.66c-8.94,58.47-15.82,79.8-93.55,110.75l-71.54-28.2L231.51,587l-28.89-21.33-56.41-19.26,46.09-59.84-18.57-17.89V444l27.51,2.75,53.66-42.65Z" transform="translate(-143.74 -259.39)"/></g><g id="Layer_3" data-name="Layer 3"><polygon class="cls-2" points="183.46 238.07 187.82 248.16 191.79 238.14 183.46 238.07"/><polygon class="cls-2" points="224.73 198.47 229.09 208.56 233.06 198.55 224.73 198.47"/><polygon class="cls-2" points="196.15 122.42 200.5 132.51 204.48 122.5 196.15 122.42"/><polygon class="cls-2" points="171.76 176.84 176.12 186.93 180.1 176.92 171.76 176.84"/><polygon class="cls-2" points="99.31 214.45 103.66 224.54 107.64 214.53 99.31 214.45"/><polygon class="cls-2" points="80.35 266.73 84.71 276.82 88.68 266.81 80.35 266.73"/><polyline class="cls-2" points="187.51 256.03 226.03 214.76 200.35 140.16 177.42 193.35 104.96 231.57 85.39 283.24"/></g></svg>